<svg xmlns="http://www.w3.org/2000/svg" width="22" height="16" fill="none"><path fill="url(#a)" fill-rule="evenodd" d="M17.6 0c1.944 0 3.52 1.592 3.52 3.556v1.147a3.48 3.48 0 0 0-1.32-.259h-2.64c-1.944 0-3.52 1.592-3.52 3.556s1.576 3.556 3.52 3.556h2.64c.467 0 .912-.092 1.32-.259v1.147c0 1.964-1.576 3.556-3.52 3.556H3.52C1.576 16 0 14.408 0 12.444V3.556C0 1.592 1.576 0 3.52 0H17.6Zm2.2 5.778c.495 0 .952.165 1.32.444.534.405.88 1.051.88 1.778 0 .727-.346 1.373-.88 1.778a2.176 2.176 0 0 1-1.32.444h-2.64c-1.215 0-2.2-.995-2.2-2.222 0-1.227.985-2.222 2.2-2.222h2.64Z" clip-rule="evenodd"/><defs><linearGradient id="a" x1="15.106" x2="1.274" y1="14.778" y2="9.487" gradientUnits="userSpaceOnUse"><stop stop-color="#8328F4"/><stop offset=".352" stop-color="#8D29F1"/><stop offset="1" stop-color="#CE26D6"/></linearGradient></defs></svg>